<?xml version="1.0" standalone="no"?>
<!DOCTYPE svg PUBLIC "-//W3C//DTD SVG 20010904//EN"
 "http://www.w3.org/TR/2001/REC-SVG-20010904/DTD/svg10.dtd">
<svg version="1.0" xmlns="http://www.w3.org/2000/svg"
 width="260.000000pt" height="260.000000pt" viewBox="0 0 260.000000 260.000000"
 preserveAspectRatio="xMidYMid meet">
<metadata>
Created by potrace 1.14, written by Peter Selinger 2001-2017
</metadata>
<g transform="translate(0.000000,260.000000) scale(0.100000,-0.100000)"
fill="#000000" stroke="none">
<path d="M987 2360 c-106 -41 -214 -152 -243 -247 -17 -56 -18 -171 -2 -210 6
-15 11 -73 10 -128 0 -86 3 -107 24 -153 14 -29 30 -78 36 -109 22 -108 123
-248 210 -294 48 -25 141 -26 185 -2 106 60 219 213 229 314 4 30 12 77 20
104 9 34 15 120 16 265 l3 215 -33 67 c-26 53 -46 78 -98 118 -35 29 -85 58
-111 66 -66 20 -187 17 -246 -6z m221 0 c33 -8 71 -28 118 -64 56 -42 76 -65
103 -119 31 -61 34 -74 35 -159 0 -51 -2 -143 -5 -204 -6 -104 -8 -114 -38
-158 -31 -44 -34 -46 -82 -46 -54 0 -100 -17 -80 -29 20 -13 31 -68 16 -81
-10 -9 -14 -6 -18 12 -4 19 -5 18 -6 -7 l-2 -30 -15 25 -15 25 6 -28 c8 -40
-18 -31 -27 9 -6 26 -7 25 -5 -8 4 -47 -16 -50 -31 -5 l-12 32 5 -32 c3 -25 1
-33 -10 -33 -10 0 -16 12 -17 38 l-1 37 -5 -40 -6 -40 -6 40 -7 40 -2 -37 c-1
-46 -21 -51 -21 -6 0 40 -6 34 -13 -15 -5 -35 -5 -37 19 -31 19 5 24 2 25 -12
1 -18 2 -18 6 -1 4 15 12 18 44 14 22 -2 42 0 45 5 3 5 12 7 20 4 7 -3 19 0
26 7 7 7 21 18 31 26 15 12 17 11 15 -13 -5 -55 -138 -163 -138 -112 0 8 6 17
13 19 9 4 9 6 -1 6 -7 1 -17 -10 -21 -23 -9 -21 -15 -23 -58 -20 -75 6 -77 7
-91 21 -18 18 -32 17 -32 -3 0 -8 5 -12 10 -9 6 3 10 -1 10 -10 0 -9 5 -13 11
-9 6 3 15 0 20 -7 6 -10 9 -11 9 -1 0 25 20 11 21 -15 2 -24 2 -25 6 -5 3 17
11 22 34 22 23 0 29 -5 30 -22 l2 -23 4 23 c2 12 10 22 18 22 8 0 12 -8 9 -22
-3 -18 -1 -17 8 5 14 33 38 37 31 5 -4 -19 -3 -20 6 -8 6 8 11 23 11 33 0 25
18 21 23 -5 3 -16 5 -13 6 10 0 19 5 31 11 27 6 -3 10 0 10 8 0 7 14 26 32 43
31 29 30 22 -4 -28 -11 -16 -15 -28 -9 -28 19 0 68 71 80 119 6 26 26 63 42
82 l30 34 -4 -53 c-7 -85 -64 -186 -147 -260 -38 -34 -80 -66 -95 -72 -39 -15
-112 -12 -149 5 -79 38 -195 198 -211 291 -4 21 -9 48 -12 59 -5 18 -4 19 8 3
8 -9 23 -18 33 -20 15 -2 23 -17 32 -59 11 -48 48 -129 60 -129 2 0 3 12 3 28
1 67 3 72 19 72 9 0 29 -7 45 -14 l27 -15 -1 42 c-2 30 -3 34 -6 15 -5 -31
-23 -38 -24 -10 0 10 -3 12 -6 5 -2 -7 -9 -13 -14 -13 -6 0 -7 6 -3 13 5 7 0
6 -10 -3 -18 -14 -18 -12 -12 26 8 48 -1 59 -61 68 -29 4 -43 2 -46 -7 -6 -18
-87 70 -88 96 -1 12 -3 60 -4 107 -2 47 -6 132 -10 190 -9 129 0 167 59 241
99 126 244 181 394 149z"/>
<path d="M1400 2030 c-6 -96 4 -190 21 -190 6 0 7 6 2 13 -4 6 -11 59 -14 117
-3 58 -7 85 -9 60z"/>
<path d="M825 2005 c10 -82 8 -102 -14 -139 -12 -22 -17 -44 -14 -72 3 -24 0
-45 -6 -48 -6 -4 -11 -12 -11 -18 0 -7 6 -6 15 2 8 7 15 25 15 41 0 16 4 29 9
29 5 0 9 -20 9 -45 -1 -24 5 -51 11 -59 17 -20 72 -30 118 -21 44 8 113 72
113 104 0 11 6 21 13 21 21 0 48 35 41 54 -9 23 -21 20 -20 -6 1 -15 -5 -23
-16 -23 -9 0 -20 -3 -24 -7 -3 -4 -14 -4 -23 1 -33 17 -84 20 -153 11 -39 -6
-73 -8 -76 -6 -2 3 5 25 17 49 20 41 21 51 11 113 -14 85 -25 100 -15 19z"/>
<path d="M1235 1846 c-71 -39 -81 -66 -41 -113 23 -28 24 -31 8 -46 -13 -13
-13 -19 -4 -29 9 -9 12 -8 12 5 0 9 3 17 8 18 4 0 40 1 80 2 64 2 76 5 93 26
12 15 19 39 19 67 0 51 -16 64 -79 64 -42 0 -50 7 -29 28 21 21 -5 12 -67 -22z"/>
<path d="M1079 1677 c-27 -37 -39 -93 -24 -113 16 -23 45 -11 46 18 l0 23 9
-22 c11 -26 42 -30 60 -8 25 30 -19 125 -59 125 -9 0 -23 -11 -32 -23z"/>
<path d="M950 1411 c0 -10 19 -25 25 -20 1 2 -3 10 -11 17 -8 7 -14 8 -14 3z"/>
<path d="M1082 1300 c0 -14 2 -19 5 -12 2 6 2 18 0 25 -3 6 -5 1 -5 -13z"/>
<path d="M1426 1387 c5 -22 -4 -45 -44 -115 -28 -48 -64 -132 -82 -187 -17
-55 -49 -145 -70 -200 -21 -55 -48 -134 -60 -175 -12 -41 -30 -100 -40 -130
l-18 -55 -1 87 c-1 107 -26 237 -57 300 -30 59 -30 70 0 105 l24 27 -20 45
c-30 70 -37 76 -65 49 -23 -22 -43 -75 -48 -134 -4 -36 -19 -67 -53 -105 -13
-14 -36 -59 -52 -100 l-30 -74 6 60 c11 118 23 201 39 274 9 43 15 106 13 155
l-3 81 -18 -52 c-20 -56 -15 -52 -202 -171 -45 -28 -99 -59 -120 -68 -22 -9
-68 -36 -102 -61 -35 -24 -63 -41 -63 -37 0 16 -43 -34 -62 -71 -16 -30 -23
-70 -29 -175 -4 -74 -12 -173 -18 -220 -5 -47 -14 -126 -20 -175 -6 -50 -15
-115 -21 -144 -5 -30 -10 -69 -10 -87 l0 -34 1175 0 1175 0 -6 28 c-4 15 -17
54 -30 88 -13 34 -31 85 -40 115 -34 120 -103 337 -172 539 -16 47 -33 107
-37 135 -4 27 -13 62 -21 76 -15 31 -70 79 -88 79 -7 0 -37 13 -67 29 -30 15
-80 36 -111 45 -31 9 -94 32 -140 51 -46 20 -125 47 -176 60 -110 30 -127 40
-193 114 -43 48 -49 52 -43 28z m151 -842 c45 -11 65 -23 90 -52 18 -21 33
-43 33 -49 0 -14 -260 -29 -303 -19 -31 8 -32 13 -13 59 32 77 76 91 193 61z"/>
</g>
</svg>
